<svg width="20" height="13" viewBox="0 0 20 13" fill="none" xmlns="http://www.w3.org/2000/svg">
<path opacity="0.4" d="M20 7.94018C20 10.7302 17.76 12.9902 14.97 13.0002H14.96H5.05C2.27 13.0002 0 10.7502 0 7.96018V7.95018C0 7.95018 0.006 3.52418 0.014 1.29818C0.015 0.880183 0.495 0.646183 0.822 0.906183C3.198 2.79118 7.447 6.22818 7.5 6.27318C8.21 6.84218 9.11 7.16318 10.03 7.16318C10.95 7.16318 11.85 6.84218 12.56 6.26218C12.613 6.22718 16.767 2.89318 19.179 0.977183C19.507 0.716183 19.989 0.950183 19.99 1.36718C20 3.57618 20 7.94018 20 7.94018Z" fill="url(#paint0_linear_604_51)"/>
<defs>
<linearGradient id="paint0_linear_604_51" x1="-2.83611e-08" y1="0.0477438" x2="22.2102" y2="5.68753" gradientUnits="userSpaceOnUse">
<stop stop-color="#53E88B"/>
<stop offset="1" stop-color="#15BE77"/>
</linearGradient>
</defs>
</svg>
